<?xml version="1.0" standalone="no"?>
<!DOCTYPE svg PUBLIC "-//W3C//DTD SVG 20010904//EN"
 "http://www.w3.org/TR/2001/REC-SVG-20010904/DTD/svg10.dtd">
<svg version="1.0" xmlns="http://www.w3.org/2000/svg"
 width="512.000000pt" height="512.000000pt" viewBox="0 0 512.000000 512.000000"
 preserveAspectRatio="xMidYMid meet">

<g transform="translate(0.000000,512.000000) scale(0.100000,-0.100000)"
fill="#000000" stroke="none">
<path d="M25 5095 l-25 -24 0 -2511 0 -2511 25 -24 24 -25 2511 0 2511 0 24
25 25 24 0 2505 c0 1830 -3 2512 -11 2530 -6 13 -21 27 -33 30 -11 3 -1147 6
-2524 6 l-2503 0 -24 -25z m2788 -565 c-4 -16 -2 -19 11 -14 9 3 16 3 16 0 0
-3 -26 -66 -59 -139 -84 -188 -88 -207 -68 -282 11 -41 100 -145 124 -145 7 0
13 -3 13 -8 0 -20 56 -41 125 -48 34 -3 45 1 75 29 19 17 39 33 45 33 5 1 18
2 28 3 9 0 16 4 15 9 -3 8 11 15 15 6 1 -3 18 -23 39 -44 20 -22 39 -53 43
-70 7 -33 62 -100 81 -100 6 0 17 -7 24 -15 7 -8 33 -17 59 -21 42 -5 51 -11
77 -50 16 -24 32 -44 37 -44 4 0 7 -7 7 -15 0 -26 49 -49 99 -47 l46 2 -35
-13 c-31 -11 -37 -19 -55 -74 -11 -35 -25 -63 -31 -63 -6 0 -21 11 -34 25 -39
42 -123 67 -219 66 -202 -2 -350 -74 -569 -275 -46 -42 -91 -76 -103 -76 -33
0 -71 25 -129 85 -117 120 -232 196 -354 236 -60 19 -83 21 -175 16 -58 -3
-124 -13 -146 -21 -59 -22 -66 -21 -55 10 6 14 10 45 10 70 0 41 11 57 25 34
8 -13 55 10 55 28 0 9 6 12 16 8 8 -3 12 -2 9 4 -3 6 -3 10 2 10 7 0 26 37 68
133 9 20 13 42 10 47 -3 6 -1 10 4 10 6 0 11 7 11 15 0 21 48 1 84 -36 34 -35
39 -36 60 -5 11 17 15 49 16 108 0 87 2 107 11 123 4 6 9 26 13 46 4 21 13 42
21 49 8 7 15 18 15 24 1 26 63 76 96 76 8 0 21 6 29 13 7 6 25 21 41 32 15 11
37 29 49 40 11 11 26 19 32 17 7 -2 13 1 13 7 0 12 76 49 120 58 19 3 41 12
48 20 7 7 22 13 31 13 10 0 24 6 30 14 6 7 24 16 40 19 17 4 43 23 63 46 18
23 34 41 35 41 0 0 -1 -9 -4 -20z m1291 -1022 c8 -30 8 -72 0 -92 -5 -13 -9
-14 -20 -5 -15 12 -17 39 -8 88 8 36 19 40 28 9z m-2925 -153 l1 -60 -20 25
c-20 25 -21 56 -3 115 l6 20 8 -20 c4 -11 8 -47 8 -80z m588 33 c-3 -8 -6 -5
-6 6 -1 11 2 17 5 13 3 -3 4 -12 1 -19z m2341 -54 c2 -1 -10 -9 -26 -18 -26
-13 -32 -14 -42 -1 -18 22 -3 35 33 28 18 -3 34 -7 35 -9z m-2887 -54 c12 0
12 -47 0 -55 -11 -6 -41 33 -41 53 0 9 6 12 16 8 9 -3 20 -6 25 -6z m379 -238
c-27 -82 -52 -125 -91 -153 -41 -29 -47 -17 -16 28 85 121 117 175 118 197 0
12 3 15 6 8 2 -6 -5 -42 -17 -80z m2380 -87 c0 5 7 -1 16 -13 8 -12 12 -27 9
-32 -7 -11 -14 -38 -22 -83 -12 -61 -23 -33 -23 55 0 64 3 88 10 78 5 -8 10
-11 10 -5z m-2511 -138 c1 -5 -3 -5 -9 -2 -5 3 -10 16 -9 28 0 21 1 21 9 2 5
-11 9 -24 9 -28z m166 -14 c60 -59 70 -101 71 -288 1 -154 17 -341 30 -355 3
-3 9 -5 12 -5 20 -1 260 -277 296 -340 114 -201 158 -290 170 -347 8 -35 29
-97 48 -138 19 -41 38 -91 41 -110 7 -34 6 -34 -65 41 -78 82 -167 206 -250
347 -28 48 -97 152 -153 232 -115 163 -121 173 -140 238 -21 71 -55 270 -55
321 0 25 7 84 15 131 8 47 15 101 15 121 0 49 -26 122 -55 153 -32 35 -15 33
20 -1z m1085 -130 c14 -63 30 -77 73 -70 38 6 99 -13 129 -40 30 -26 58 -92
58 -139 0 -60 -28 -144 -63 -189 -39 -49 -133 -138 -155 -146 -10 -4 9 -9 43
-13 178 -19 301 -60 320 -107 13 -28 8 -222 -5 -214 -5 3 -12 -11 -16 -31 -11
-58 -24 -19 -24 74 0 64 3 84 15 88 8 4 15 17 15 30 0 33 -23 31 -112 -11 -40
-19 -105 -42 -143 -50 -92 -19 -266 -19 -363 1 -132 27 -225 85 -209 128 14
36 162 80 295 88 l44 3 -63 50 c-144 115 -206 284 -150 410 25 57 67 80 130
70 99 -14 93 -17 119 55 12 36 25 72 28 80 5 13 6 13 13 0 5 -8 14 -38 21 -67z
m1720 -87 c24 -72 25 -85 3 -181 -15 -69 -18 -75 -39 -72 -13 2 -26 6 -30 10
-4 4 -13 2 -21 -4 -18 -15 -36 1 -62 55 -41 84 -18 183 68 289 14 17 16 16 37
-10 13 -15 32 -55 44 -87z m-722 -8 c-9 -16 -13 -73 -14 -173 -2 -166 -14
-216 -80 -349 -40 -79 -96 -148 -283 -348 -74 -79 -168 -187 -209 -242 -60
-80 -202 -234 -190 -207 2 4 21 51 42 106 22 55 62 132 92 174 29 42 67 103
84 136 34 65 105 156 153 195 29 24 140 165 223 283 22 32 51 65 64 74 23 16
23 16 17 -7 -6 -22 -5 -22 10 -7 13 13 17 39 19 119 2 107 18 177 54 236 22
36 38 45 18 10z m-2707 -323 c17 -62 7 -173 -20 -217 l-23 -37 -21 20 c-21 20
-21 20 -37 -1 -15 -20 -16 -20 -32 -1 -32 38 -41 67 -42 136 0 86 16 135 62
197 l35 47 34 -52 c18 -29 38 -70 44 -92z m3544 2 c31 -11 41 -20 43 -40 3
-24 1 -25 -50 -24 -102 3 -305 -15 -304 -27 2 -22 -15 -152 -25 -188 -5 -21
-14 -38 -19 -38 -4 0 -11 33 -15 73 -4 39 -13 86 -20 102 l-12 30 -6 -35 c-3
-19 -9 -138 -12 -265 -9 -356 -19 -344 -25 30 -3 187 -2 348 2 357 24 51 319
68 443 25z m-3635 -306 c0 -4 -40 -10 -88 -13 -86 -5 -135 -19 -114 -31 23
-15 164 -28 242 -22 193 15 218 55 34 55 -41 0 -64 4 -64 11 0 15 172 7 213
-10 l27 -11 -2 -362 c-1 -242 -4 -333 -9 -273 -4 50 -7 142 -8 204 -2 193 -29
353 -61 358 -29 5 -37 -13 -44 -102 -4 -49 -8 -90 -9 -92 -10 -9 -31 22 -38
58 -21 102 -21 105 -6 121 14 14 5 16 -90 22 -59 4 -126 10 -149 13 l-43 6 -7
-42 c-9 -55 -20 -52 -27 7 -7 61 9 86 65 99 53 13 178 16 178 4z m1382 -234
c-4 -185 -22 -169 -22 21 0 118 2 143 13 132 9 -11 11 -53 9 -153z m1469 -320
c44 -17 56 -25 117 -76 55 -47 39 -123 -32 -155 -121 -54 -133 -56 -229 -42
-68 10 -68 -2 0 158 44 105 80 159 92 141 3 -5 27 -17 52 -26z m-2126 -172
c41 -104 36 -114 -60 -115 -85 -1 -89 -1 -110 3 -31 5 -106 43 -107 53 0 5 -3
15 -5 22 -15 38 60 131 133 166 21 10 46 22 54 26 17 8 53 -50 95 -155z"/>
<path d="M2665 2128 c-17 -44 -14 -112 7 -152 7 -12 6 -22 -1 -29 -13 -13 -15
-37 -2 -37 5 0 16 12 26 26 16 24 15 28 -4 70 -23 49 -26 85 -10 116 l11 21
19 -24 c16 -20 19 -21 19 -6 0 26 -18 57 -34 57 -8 0 -21 -19 -31 -42z"/>
<path d="M4278 2260 c-45 -3 -73 -11 -84 -22 -16 -16 -15 -17 12 -25 37 -10
250 -8 286 3 87 27 -53 56 -214 44z"/>
</g>
</svg>
